<svg width="48" height="48" viewBox="0 0 48 48" fill="none" xmlns="http://www.w3.org/2000/svg">
<g clip-path="url(#clip0_973_221)">
<rect width="48" height="48" fill="white"/>
<path fill-rule="evenodd" clip-rule="evenodd" d="M48 0H0V48H17.9927C17.9961 47.6163 18.0311 43.5973 18.019 41.5349C11.3432 42.9847 9.93473 38.3172 9.93473 38.3172C8.84298 35.5458 7.26945 34.8077 7.26945 34.8077C5.09038 33.3181 7.43447 33.3476 7.43447 33.3476C9.84338 33.5185 11.1105 35.8213 11.1105 35.8213C13.2512 39.4885 16.7283 38.4291 18.0956 37.8162C18.3136 36.2648 18.9324 35.2069 19.619 34.6073C14.2899 34.0017 8.68681 31.942 8.68681 22.7454C8.68681 20.1258 9.62238 17.9836 11.1576 16.3054C10.9101 15.6984 10.0865 13.2586 11.3919 9.95387C11.3919 9.95387 13.4074 9.30855 17.9924 12.4143C19.9063 11.8825 21.9601 11.6158 24.0007 11.607C26.0384 11.6158 28.0922 11.8825 30.009 12.4143C34.5911 9.30855 36.6022 9.95387 36.6022 9.95387C37.912 13.2586 37.0884 15.6984 36.8409 16.3054C38.3791 17.9836 39.3087 20.1258 39.3087 22.7454C39.3087 31.9656 33.6968 33.9944 28.35 34.5881C29.2119 35.3292 29.9795 36.7937 29.9795 39.0332C29.9795 41.9096 30.0066 47.5431 30.0089 48H48V0Z" fill="black"/>
</g>
<defs>
<clipPath id="clip0_973_221">
<rect width="48" height="48" fill="white"/>
</clipPath>
</defs>
</svg>
