<?xml version="1.0" encoding="utf-8"?>
<!-- Generator: Adobe Illustrator 27.8.0, SVG Export Plug-In . SVG Version: 6.00 Build 0)  -->
<svg version="1.1" id="Layer_1" xmlns="http://www.w3.org/2000/svg" xmlns:xlink="http://www.w3.org/1999/xlink" x="0px" y="0px"
	 viewBox="0 0 4791.3 1071.7" style="enable-background:new 0 0 4791.3 1071.7;" xml:space="preserve">
<style type="text/css">
	.st0{font-family:'PPMori-Book';}
	.st1{font-size:540px;}
	.st2{letter-spacing:1;}
</style>
<g>
	<path d="M638.3,910.2c-29.9,52.4-70.4,92-121.5,119c-51.1,27-108.2,40.5-171.3,40.5c-72.2,0-134.3-15.3-186.4-45.9
		S67.5,951.6,40.5,898.9S0,787.3,0,722.3V476.4h683.1v245.9C683.2,795.2,668.3,857.8,638.3,910.2L638.3,910.2z M134.3,849.7
		c19.8,33.5,47.8,59.4,83.9,77.6c36.1,18.2,78.6,27.3,127.3,27.3c67,0,121.6-20,163.9-60s65.4-93.9,69.3-161.5V586.7H104.6V733
		C104.6,777.3,114.5,816.1,134.3,849.7L134.3,849.7z"/>
	<path d="M582,187v104.4H397.6v492.7H286.4V291.4h-185V187H582z"/>
	<path d="M397.3,2v487H286.1V2H397.3z"/>
</g>
<text transform="matrix(1 0 0 1 1224.6527 709.4949)" class="st0 st1 st2">Tatjana Dudas</text>
</svg>
