<?xml version="1.0" encoding="utf-8"?>
<!-- Generator: Adobe Illustrator 27.7.0, SVG Export Plug-In . SVG Version: 6.00 Build 0)  -->
<svg version="1.1" id="Layer_1" xmlns="http://www.w3.org/2000/svg" xmlns:xlink="http://www.w3.org/1999/xlink" x="0px" y="0px"
	 viewBox="0 0 1080 1071.7" style="enable-background:new 0 0 1080 1071.7;" xml:space="preserve">
<g>
	<path d="M836.6,910.2c-29.9,52.4-70.4,92-121.5,119c-51.1,27-108.2,40.5-171.3,40.5c-72.2,0-134.3-15.3-186.4-45.9
		c-52.1-30.6-91.6-72.2-118.6-124.9c-27-52.7-40.5-111.6-40.5-176.6V476.4h683.1v245.9C881.5,795.2,866.6,857.8,836.6,910.2
		L836.6,910.2z M332.6,849.7c19.8,33.5,47.8,59.4,83.9,77.6c36.1,18.2,78.6,27.3,127.3,27.3c67,0,121.6-20,163.9-60
		c42.3-40,65.4-93.9,69.3-161.5V586.7H302.9V733C302.9,777.3,312.8,816.1,332.6,849.7L332.6,849.7z"/>
	<path d="M780.3,187v104.4H595.9v492.7H484.7V291.4h-185V187H780.3z"/>
	<path d="M595.6,2V489H484.4V2H595.6z"/>
</g>
</svg>
